<mxfile host="app.diagrams.net" agent="Mozilla/5.0 (Windows NT 10.0; Win64; x64) AppleWebKit/537.36 (KHTML, like Gecko) Chrome/138.0.0.0 Safari/537.36" version="28.0.6">
  <diagram name="PÃ¡gina-1" id="gGvhY349-vf_QZdIpYW1">
    <mxGraphModel dx="2066" dy="743" grid="1" gridSize="10" guides="1" tooltips="1" connect="1" arrows="1" fold="1" page="1" pageScale="1" pageWidth="827" pageHeight="1169" math="0" shadow="0">
      <root>
        <mxCell id="0" />
        <mxCell id="1" parent="0" />
        <mxCell id="CMt7DkQ_DYwSQyB2Q8L9-1" value="5GDrone Device" style="shape=image;html=1;verticalAlign=top;verticalLabelPosition=bottom;labelBackgroundColor=#ffffff;imageAspect=0;aspect=fixed;image=https://icons.diagrams.net/icon-cache1/Fruit-2455/Fruit_iconfree_Filled_Outline_raspberry-healthy-organic-food-fruit_icon-896.svg" vertex="1" parent="1">
          <mxGeometry x="40" y="80" width="130" height="130" as="geometry" />
        </mxCell>
        <mxCell id="CMt7DkQ_DYwSQyB2Q8L9-3" style="edgeStyle=orthogonalEdgeStyle;rounded=0;orthogonalLoop=1;jettySize=auto;html=1;entryX=1;entryY=0.5;entryDx=0;entryDy=0;endArrow=none;endFill=0;" edge="1" parent="1" source="CMt7DkQ_DYwSQyB2Q8L9-2" target="CMt7DkQ_DYwSQyB2Q8L9-1">
          <mxGeometry relative="1" as="geometry" />
        </mxCell>
        <mxCell id="CMt7DkQ_DYwSQyB2Q8L9-7" style="edgeStyle=orthogonalEdgeStyle;rounded=0;orthogonalLoop=1;jettySize=auto;html=1;endArrow=none;endFill=0;" edge="1" parent="1" source="CMt7DkQ_DYwSQyB2Q8L9-2" target="CMt7DkQ_DYwSQyB2Q8L9-6">
          <mxGeometry relative="1" as="geometry" />
        </mxCell>
        <mxCell id="CMt7DkQ_DYwSQyB2Q8L9-2" value="Mobile network" style="points=[];aspect=fixed;html=1;align=center;shadow=0;dashed=0;fillColor=#FF6A00;strokeColor=none;shape=mxgraph.alibaba_cloud.ccn_cloud_connect_network;verticalAlign=top;labelPosition=center;verticalLabelPosition=bottom;" vertex="1" parent="1">
          <mxGeometry x="319" y="106.5" width="94.11" height="77" as="geometry" />
        </mxCell>
        <mxCell id="CMt7DkQ_DYwSQyB2Q8L9-6" value="MQTT Server" style="sketch=0;outlineConnect=0;fontColor=#232F3E;gradientColor=none;fillColor=#7AA116;strokeColor=none;dashed=0;verticalLabelPosition=top;verticalAlign=bottom;align=center;html=1;fontSize=12;fontStyle=0;aspect=fixed;pointerEvents=1;shape=mxgraph.aws4.mqtt_protocol;labelPosition=center;" vertex="1" parent="1">
          <mxGeometry x="570" y="106" width="78" height="78" as="geometry" />
        </mxCell>
        <mxCell id="CMt7DkQ_DYwSQyB2Q8L9-9" style="edgeStyle=orthogonalEdgeStyle;rounded=0;orthogonalLoop=1;jettySize=auto;html=1;exitX=0.5;exitY=0;exitDx=0;exitDy=0;exitPerimeter=0;endArrow=none;endFill=0;" edge="1" parent="1" source="CMt7DkQ_DYwSQyB2Q8L9-8" target="CMt7DkQ_DYwSQyB2Q8L9-6">
          <mxGeometry relative="1" as="geometry" />
        </mxCell>
        <mxCell id="CMt7DkQ_DYwSQyB2Q8L9-8" value="5GDrone&amp;nbsp;&lt;span style=&quot;background-color: transparent; color: light-dark(rgb(0, 0, 0), rgb(255, 255, 255));&quot;&gt;SDK&lt;/span&gt;" style="outlineConnect=0;dashed=0;verticalLabelPosition=bottom;verticalAlign=top;align=center;html=1;shape=mxgraph.aws3.android;fillColor=#FFD44F;gradientColor=none;" vertex="1" parent="1">
          <mxGeometry x="390" y="280" width="73.5" height="84" as="geometry" />
        </mxCell>
        <mxCell id="CMt7DkQ_DYwSQyB2Q8L9-13" style="edgeStyle=orthogonalEdgeStyle;rounded=0;orthogonalLoop=1;jettySize=auto;html=1;endArrow=none;endFill=0;exitX=0.5;exitY=0;exitDx=0;exitDy=0;exitPerimeter=0;" edge="1" parent="1" source="CMt7DkQ_DYwSQyB2Q8L9-12" target="CMt7DkQ_DYwSQyB2Q8L9-6">
          <mxGeometry relative="1" as="geometry" />
        </mxCell>
        <mxCell id="CMt7DkQ_DYwSQyB2Q8L9-12" value="Mobile MQTT client" style="sketch=0;outlineConnect=0;fontColor=#232F3E;gradientColor=none;strokeColor=#232F3E;fillColor=#ffffff;dashed=0;verticalLabelPosition=bottom;verticalAlign=top;align=center;html=1;fontSize=12;fontStyle=0;aspect=fixed;shape=mxgraph.aws4.resourceIcon;resIcon=mxgraph.aws4.mobile_client;" vertex="1" parent="1">
          <mxGeometry x="720" y="280" width="80" height="80" as="geometry" />
        </mxCell>
        <mxCell id="CMt7DkQ_DYwSQyB2Q8L9-15" style="edgeStyle=orthogonalEdgeStyle;rounded=0;orthogonalLoop=1;jettySize=auto;html=1;endArrow=none;endFill=0;" edge="1" parent="1" source="CMt7DkQ_DYwSQyB2Q8L9-14" target="CMt7DkQ_DYwSQyB2Q8L9-6">
          <mxGeometry relative="1" as="geometry" />
        </mxCell>
        <mxCell id="CMt7DkQ_DYwSQyB2Q8L9-14" value="5GDrone DB" style="shape=cylinder3;whiteSpace=wrap;html=1;boundedLbl=1;backgroundOutline=1;size=15;labelPosition=center;verticalLabelPosition=bottom;align=center;verticalAlign=top;" vertex="1" parent="1">
          <mxGeometry x="573.5" y="280" width="71" height="80" as="geometry" />
        </mxCell>
      </root>
    </mxGraphModel>
  </diagram>
</mxfile>
